#!OML:ASF E:/inclinewalkrobotboard/Project1/Captureday1/Session1/subject1.ASF
:FULLY-SPECIFIED
:DEGREES
251
root 0 0 0 2.0368271518746655 -11.04337179106924 0.9533732805804151
lowerback -0.4568175238604193 -1.8095918021937805 -2.7848502627971747
upperback -0.38679955900569585 -2.377500888409037 1.6775170906338204
thorax 0.059415663237941674 -1.1826670877378662 3.23766134390096
lowerneck -25.048928258195783 -1.6549648566707664 -8.111993795944816
upperneck 28.21189232321646 0.30362051911577426 2.1924677023180132
head 13.647394145545654 -0.5412855896426441 2.3585147306079666
rclavicle 2.043068524674797E-15 -6.254685892083005E-16
rhumerus -33.84110928189663 -4.1205525061843 -78.64607490412078
rradius 28.870389625931598
rwrist 20.438819025430565
rhand -17.522981793394887 8.886073649082874
rfingers 7.125019999999937
rthumb 8.726849573356054 -20.89404146623872
lclavicle 1.4392457833135618E-15 6.097088368970617E-16
lhumerus -20.828918313993984 -9.020410590826101 91.3010169625846
lradius 66.74428273327914
lwrist 3.2481179504148563
lhand -28.64740584131531 22.334914447291386
lfingers 7.125020000000019
lthumb -2.0333999419979216 52.38565857429501
rfemur -32.97976020600844 3.8422657758191052 17.28426044865873
rtibia 30.24343199919799
rfoot -6.540128196653255 -12.70447659153992
rtoes -3.569204226556482
lfemur 13.464069212780128 -3.0946748358258827 -31.39404460841814
ltibia 19.59045439108631
lfoot -18.911689939767484 -3.18868194477093
ltoes -4.118801006926493
252
root 0 0 0 2.03113854657521 -11.043591792022882 0.9719203361137967
lowerback -0.42818656244755005 -1.8150281296563568 -2.7652359527821937
upperback -0.39376694902380976 -2.386084401809719 1.7322421596314381
thorax 0.03939276115465051 -1.1874160227062256 3.2827543817176803
lowerneck -25.388816529492985 -1.6747705551527674 -8.045607092182243
upperneck 27.727313423895595 0.3021525840012833 2.1866850689495347
head 13.545577449543298 -0.5322304505929726 2.344137208245819
rclavicle 3.676588765253326E-15 -1.3561303277406465E-15
rhumerus -33.962679493446274 -3.392018397683973 -78.18602118517317
rradius 28.578086077477494
rwrist 20.405778520443587
rhand -17.660597077751213 8.976009629891593
rfingers 7.125019999999936
rthumb 8.593936578219585 -20.807779897073985
lclavicle 2.300826243595191E-15 6.987577100950426E-16
lhumerus -20.550332362147465 -10.254890477606164 91.16722492401567
lradius 67.3347267764331
lwrist 3.646404358547285
lhand -28.658604882143777 22.983371427644016
lfingers 7.125020000000015
lthumb -2.0479540129326192 53.04625401912572
rfemur -33.26301104088484 4.973491476034825 17.885113288614058
rtibia 23.02227838052254
rfoot -7.247281171958106 -13.44163257379131
rtoes -3.9869929602542458
lfemur 19.908398687343922 -3.515624089399642 -30.750682575748062
ltibia 21.063823267408306
lfoot -14.361787181733462 -6.300913173300313
ltoes -9.780157932189972
253
root 0 0 0 1.9878678617823309 -11.009083609815745 0.9807454943636333
lowerback -0.3240462420571528 -1.7950998500174042 -2.712965915693557
upperback -0.4317653338123526 -2.3619399004779407 1.8327793290082635
thorax -0.05638565531968798 -1.1739467897987468 3.3579780760807196
lowerneck -25.80955828447955 -1.6803689755540687 -7.884578503907655
upperneck 26.94295599439004 0.33410552248390935 2.1343240902736804
head 13.36109457689606 -0.5120006808373285 2.3028781707725607
rclavicle 3.586261158644689E-15 -1.8498131525818654E-15
rhumerus -34.03835130009684 -2.7525832832316395 -77.85283688391665
rradius 28.389560111426253
rwrist 20.384893598193713
rhand -17.7761262794096 9.022041609937958
rfingers 7.125019999999938
rthumb 8.48242957260208 -20.770300116519024
lclavicle 2.191641688062568E-15 6.279739877016386E-16
lhumerus -20.220488871666195 -11.28894546408802 90.96121152897751
lradius 67.82391085151966
lwrist 4.011900508586718
lhand -28.64400709004046 23.521042135782245
lfingers 7.125020000000009
lthumb -2.0372656416070747 53.59398806551836
rfemur -34.128887935344615 5.494918975043969 18.56074542784875
rtibia 19.592612043719654
rfoot -7.117286440046597 -12.962110132345813
rtoes -3.3995779400283848
lfemur 22.05440031684469 -3.617946568128212 -28.189754584566963
ltibia 27.965594869156597
lfoot -8.057341252640814 -10.478734657831424
ltoes -15.650621225856892
254
root 0 0 0 1.9056231066708191 -10.92856952629154 0.9523726485249706
lowerback -0.13945487781289856 -1.7392606446911305 -2.621321177597978
upperback -0.49824445886963226 -2.2892566737296423 1.9644033653868371
thorax -0.22905529297989358 -1.1343885512308036 3.4441963308346697
lowerneck -26.00951769812298 -1.6343235152352587 -7.649414565391759
upperneck 26.281815026470724 0.43715812752001737 1.9955770081269635
head 13.191931957826519 -0.48090956844528276 2.2339942110506055
rclavicle 2.260166653108686E-15 -2.20196954572724E-15
rhumerus -34.073114539005374 -2.463681849466804 -77.68350367014486
rradius 28.29095410776953
rwrist 20.382330736394962
rhand -17.813770932025754 9.043080111238401
rfingers 7.125019999999939
rthumb 8.446031452211521 -20.753599435556076
lclavicle 6.572034859420749E-16 3.6046294934088887E-16
lhumerus -20.029243301826614 -11.632181818820506 90.74332661795486
lradius 67.95462918869184
lwrist 4.24040028008891
lhand -28.546674193797777 23.72995391975135
lfingers 7.125020000000004
lthumb -1.9474942951580356 53.810458285337994
rfemur -35.35668543715803 6.175393197085764 20.56492726396755
rtibia 15.982993389022925
rfoot -5.361638414255678 -11.199462405710845
rtoes 0.08937506255064687
lfemur 15.61756061842308 -2.8577209591918047 -22.93115765861567
ltibia 37.56478570921534
lfoot 1.2178998515240487 -14.93078315747562
ltoes -18.323664980826226
255
root 0 0 0 1.8230950230002918 -10.844060785430214 0.8687727601683808
lowerback 0.039948792584640014 -1.6700262327559106 -2.51704886747343
upperback -0.5508046145284888 -2.1960469727942504 2.0515151206841824
thorax -0.38760932254565483 -1.0854113059943695 3.477730110651375
lowerneck -25.598831659070388 -1.513990275424916 -7.46460928043415
upperneck 26.63121462999552 0.6187506528740836 1.7527364433029948
head 13.275537872003936 -0.4542088894327133 2.16008809824977
rclavicle 1.3602807396841854E-15 -2.5698067532385147E-15
rhumerus -34.0723468955614 -2.7404595484155085 -77.70844300665954
rradius 28.264212503582637
rwrist 20.414051413013787
rhand -17.72944455092652 9.050485201045053
rfingers 7.125019999999936
rthumb 8.527253833979378 -20.7384122665776
lclavicle -1.7080591511469178E-16 5.260324881536217E-18
lhumerus -20.3678839487394 -10.580615908511877 90.74811969037793
lradius 67.47608960688295
lwrist 4.034868341345835
lhand -28.397541780947314 23.31847895769127
lfingers 7.125020000000005
lthumb -1.8064565838069795 53.39810298845854
rfemur -27.638513375469465 7.276108768312606 28.209423789357054
rtibia 14.718378013187762
rfoot -2.07592596923301 -8.34626472385771
rtoes 7.058358225529526
lfemur 4.218938697922969 -1.648195365932559 -18.76343539533559
ltibia 44.773758561236974
lfoot 8.838283783760112 -15.48229811405939
ltoes -13.201302938310356
